<svg width="37" height="29" viewBox="0 0 37 29" fill="none" xmlns="http://www.w3.org/2000/svg">
<path d="M31.2689 2.42874C28.9385 1.29412 26.4468 0.469531 23.8418 0C23.5219 0.601922 23.1481 1.41152 22.8904 2.05555C20.1212 1.62218 17.3774 1.62218 14.6592 2.05555C14.4015 1.41152 14.0193 0.601922 13.6965 0C11.0886 0.469531 8.59407 1.29715 6.26373 2.43475C1.5634 9.82621 0.289221 17.0341 0.926312 24.1396C4.04382 26.5623 7.06505 28.034 10.0353 28.997C10.7687 27.9467 11.4227 26.8301 11.9862 25.6534C10.9131 25.2291 9.88523 24.7054 8.91405 24.0975C9.1717 23.8988 9.42372 23.6912 9.66721 23.4775C15.5907 26.3607 22.0268 26.3607 27.8795 23.4775C28.1259 23.6912 28.3779 23.8988 28.6327 24.0975C27.6587 24.7084 26.628 25.232 25.5549 25.6564C26.1183 26.8301 26.7696 27.9497 27.5058 29C30.4789 28.037 33.5029 26.5653 36.6204 24.1396C37.368 15.9025 35.3434 8.76081 31.2689 2.42874ZM12.7932 19.7698C11.015 19.7698 9.55677 18.0423 9.55677 15.9386C9.55677 13.8349 10.9839 12.1044 12.7932 12.1044C14.6026 12.1044 16.0608 13.8319 16.0296 15.9386C16.0325 18.0423 14.6026 19.7698 12.7932 19.7698ZM24.7535 19.7698C22.9754 19.7698 21.5171 18.0423 21.5171 15.9386C21.5171 13.8349 22.9442 12.1044 24.7535 12.1044C26.5629 12.1044 28.0211 13.8319 27.99 15.9386C27.99 18.0423 26.5629 19.7698 24.7535 19.7698Z" fill="#BFC6D1"/>
</svg>
