<svg width="34" height="32" viewBox="0 0 34 32" fill="none" xmlns="http://www.w3.org/2000/svg">
<path fill-rule="evenodd" clip-rule="evenodd" d="M17.0634 -5.34058e-05C13.1923 -0.0039879 9.44634 1.37077 6.49677 3.87788C3.5472 6.38498 1.58684 9.86054 0.967031 13.6817C0.347219 17.5029 1.10846 21.4199 3.11432 24.7308C5.12019 28.0417 8.23957 30.53 11.9134 31.7499C12.7234 31.8999 13.0234 31.3899 13.0234 30.9599C13.0234 30.5299 13.0234 29.5499 13.0234 28.1899C8.49344 29.1899 7.53344 26.0099 7.53344 26.0099C7.23159 25.0244 6.59032 24.1776 5.72344 23.6199C4.25344 22.6199 5.84343 22.6199 5.84343 22.6199C6.35873 22.6927 6.85071 22.8818 7.28211 23.1729C7.71351 23.464 8.07304 23.8494 8.33344 24.2999C8.5547 24.7011 8.853 25.0547 9.21123 25.3403C9.56947 25.626 9.98058 25.838 10.421 25.9644C10.8614 26.0908 11.3224 26.1289 11.7776 26.0767C12.2327 26.0244 12.6731 25.8828 13.0734 25.66C13.1362 24.8373 13.4908 24.0641 14.0734 23.4799C10.4534 23.0699 6.65343 21.6699 6.65343 15.4299C6.62858 13.8129 7.22651 12.2483 8.32343 11.0599C7.8339 9.65412 7.89102 8.11561 8.48343 6.74995C8.48343 6.74995 9.85343 6.30994 12.9634 8.41994C15.634 7.68671 18.4528 7.68671 21.1234 8.41994C24.2334 6.30994 25.5934 6.74995 25.5934 6.74995C26.1921 8.11366 26.2528 9.65331 25.7634 11.0599C26.8604 12.2483 27.4583 13.8129 27.4334 15.4299C27.4334 21.6899 23.6234 23.0599 19.9934 23.4299C20.3827 23.8212 20.6832 24.2916 20.8747 24.8092C21.0663 25.3268 21.1442 25.8795 21.1034 26.4299C21.1034 28.6099 21.1034 30.3699 21.1034 30.8999C21.1034 31.4299 21.3934 31.8399 22.2234 31.6899C25.8858 30.4586 28.9916 27.9662 30.9869 24.6575C32.9822 21.3488 33.7373 17.4389 33.1175 13.6251C32.4977 9.81139 30.5433 6.34181 27.6028 3.83527C24.6624 1.32872 20.9272 -0.0518003 17.0634 -0.0600586V-5.34058e-05Z" fill="#BFC6D1"/>
</svg>
