<svg width="29" height="24" viewBox="0 0 29 24" fill="none" xmlns="http://www.w3.org/2000/svg">
<path d="M28.7733 2.84107C27.7146 3.32296 26.5769 3.64864 25.3828 3.79512C26.6017 3.04523 27.5376 1.85786 27.9784 0.443104C26.8378 1.13736 25.5745 1.6416 24.2298 1.91338C23.1529 0.735842 21.6188 0 19.9209 0C16.6607 0 14.0176 2.71274 14.0176 6.05871C14.0176 6.53357 14.0699 6.99601 14.1705 7.43944C9.26431 7.18678 4.91459 4.77466 2.00305 1.10906C1.49492 2.00391 1.20381 3.04469 1.20381 4.15505C1.20381 6.25704 2.24606 8.11155 3.83002 9.19803C2.86228 9.1666 1.95211 8.89406 1.15613 8.44026C1.15571 8.46554 1.15571 8.49092 1.15571 8.51642C1.15571 11.452 3.19054 13.9009 5.89106 14.4574C5.39567 14.5959 4.87417 14.6699 4.33573 14.6699C3.95537 14.6699 3.58553 14.6319 3.22517 14.5612C3.97631 16.9683 6.15639 18.72 8.73956 18.769C6.71924 20.3939 4.17386 21.3625 1.4082 21.3625C0.931746 21.3625 0.461821 21.3339 0 21.278C2.61243 22.997 5.71541 24 9.04908 24C19.9071 24 25.8447 14.7677 25.8447 6.76128C25.8447 6.49857 25.839 6.23727 25.8277 5.97748C26.981 5.12324 27.9819 4.0561 28.7733 2.84107Z" fill="#BFC6D1"/>
</svg>
